<svg width="100" height="16" viewBox="0 0 100 16" fill="none" xmlns="http://www.w3.org/2000/svg">
<path d="M1 11.2195L2.845 9.8055C3.8255 11.0855 4.867 11.675 6.0265 11.675C7.18 11.675 8.1915 11.092 9.128 9.823L11 11.2025C9.649 13.0325 7.9705 14 6.0265 14C4.089 14 2.394 13.039 1 11.2195ZM6.02 5.075L2.736 7.905L1.218 6.145L6.0275 2L10.799 6.148L9.274 7.9025L6.02 5.075Z" fill="black"/>
<path d="M20 2H22V6H20C19.4696 6 18.9609 5.78929 18.5858 5.41421C18.2107 5.03914 18 4.53043 18 4C18 3.46957 18.2107 2.96086 18.5858 2.58579C18.9609 2.21071 19.4696 2 20 2Z" fill="#F4511E"/>
<path d="M24 6H22V2H24C24.5304 2 25.0391 2.21071 25.4142 2.58579C25.7893 2.96086 26 3.46957 26 4C26 4.53043 25.7893 5.03914 25.4142 5.41421C25.0391 5.78929 24.5304 6 24 6Z" fill="#FF8A65"/>
<path d="M22 8C22 9.10457 22.8954 10 24 10C25.1046 10 26 9.10457 26 8C26 6.89543 25.1046 6 24 6C22.8954 6 22 6.89543 22 8Z" fill="#29B6F6"/>
<path d="M20 6H22V10H20C19.4696 10 18.9609 9.78929 18.5858 9.41421C18.2107 9.03914 18 8.53043 18 8C18 7.46957 18.2107 6.96086 18.5858 6.58579C18.9609 6.21071 19.4696 6 20 6Z" fill="#7C4DFF"/>
<path d="M20 10H22V12C22 12.5304 21.7893 13.0391 21.4142 13.4142C21.0391 13.7893 20.5304 14 20 14C19.4696 14 18.9609 13.7893 18.5858 13.4142C18.2107 13.0391 18 12.5304 18 12C18 11.4696 18.2107 10.9609 18.5858 10.5858C18.9609 10.2107 19.4696 10 20 10Z" fill="#00E676"/>
<g clip-path="url(#clip0_554_61)">
<path d="M39 9.24692C39.6887 9.24692 40.2469 8.68868 40.2469 8.00005C40.2469 7.31142 39.6887 6.75317 39 6.75317C38.3114 6.75317 37.7532 7.31142 37.7532 8.00005C37.7532 8.68868 38.3114 9.24692 39 9.24692Z" fill="#61DAFB"/>
<path d="M43.7359 5.9438C43.4953 5.8563 43.2437 5.7688 42.9812 5.69224C43.0468 5.42974 43.1015 5.16724 43.1453 4.91567C43.375 3.47192 43.1234 2.45474 42.4234 2.06099C42.2156 1.94067 41.9859 1.88599 41.7234 1.88599C40.9578 1.88599 39.9843 2.45474 39 3.4063C38.0156 2.45474 37.0421 1.88599 36.2765 1.88599C36.014 1.88599 35.7843 1.94067 35.5765 2.06099C34.8765 2.46567 34.625 3.48286 34.8546 4.91567C34.8984 5.16724 34.9531 5.42974 35.0187 5.69224C34.7562 5.7688 34.5046 5.84536 34.264 5.9438C32.8968 6.4688 32.1531 7.19067 32.1531 8.00005C32.1531 8.80942 32.9078 9.5313 34.264 10.0563C34.5046 10.1438 34.7562 10.2313 35.0187 10.3079C34.9531 10.5704 34.8984 10.8329 34.8546 11.0844C34.625 12.5282 34.8765 13.5454 35.5765 13.9391C35.7843 14.0594 36.014 14.1141 36.2765 14.1141C37.0531 14.1141 38.0265 13.5454 39 12.5938C39.9843 13.5454 40.9578 14.1141 41.7234 14.1141C41.9859 14.1141 42.2156 14.0594 42.4234 13.9391C43.1234 13.5344 43.375 12.5172 43.1453 11.0844C43.1015 10.8329 43.0468 10.5704 42.9812 10.3079C43.2437 10.2313 43.4953 10.1547 43.7359 10.0563C45.1031 9.5313 45.8468 8.80942 45.8468 8.00005C45.8468 7.19067 45.1031 6.4688 43.7359 5.9438ZM42.1171 2.60786C42.5656 2.87036 42.7187 3.67974 42.5328 4.82817C42.5 5.05786 42.4453 5.29849 42.3796 5.55005C41.8109 5.4188 41.2093 5.3313 40.575 5.27661C40.2031 4.75161 39.8203 4.2813 39.4375 3.85474C40.2468 3.0563 41.0671 2.50942 41.7343 2.50942C41.8765 2.50942 42.0078 2.54224 42.1171 2.60786ZM40.8921 9.0938C40.6953 9.4438 40.4656 9.7938 40.225 10.1438C39.8203 10.1766 39.4156 10.1875 39 10.1875C38.5734 10.1875 38.1687 10.1766 37.775 10.1438C37.5343 9.7938 37.3156 9.4438 37.1187 9.0938C36.9109 8.73286 36.714 8.36099 36.539 8.00005C36.714 7.63911 36.9109 7.26724 37.1187 6.9063C37.3156 6.5563 37.5453 6.2063 37.7859 5.8563C38.1906 5.82349 38.5953 5.81255 39.0109 5.81255C39.4375 5.81255 39.8421 5.82349 40.2359 5.8563C40.4765 6.2063 40.6953 6.5563 40.8921 6.9063C41.1 7.26724 41.2968 7.63911 41.4718 8.00005C41.2859 8.36099 41.1 8.72192 40.8921 9.0938ZM41.8 8.73286C41.964 9.11567 42.0953 9.48755 42.2156 9.85942C41.8437 9.94692 41.45 10.0125 41.0343 10.0672C41.1656 9.85942 41.3078 9.64067 41.4281 9.41099C41.5593 9.1813 41.6796 8.95161 41.8 8.73286ZM39 11.6969C38.7375 11.4125 38.4859 11.1063 38.2453 10.7891C38.4968 10.8 38.7484 10.811 39 10.811C39.2515 10.811 39.5031 10.8 39.7546 10.7891C39.514 11.1063 39.2625 11.4125 39 11.6969ZM36.9656 10.0563C36.55 10.0016 36.1562 9.93599 35.7843 9.84849C35.9046 9.48755 36.0359 9.10474 36.2 8.72192C36.3203 8.94067 36.4406 9.17036 36.5718 9.38911C36.7031 9.62974 36.8343 9.83755 36.9656 10.0563ZM36.2 7.26724C36.0359 6.88442 35.9046 6.51255 35.7843 6.14067C36.1562 6.05317 36.55 5.98755 36.9656 5.93286C36.8343 6.14067 36.6921 6.35942 36.5718 6.58911C36.4406 6.8188 36.3203 7.04849 36.2 7.26724ZM39 4.30317C39.2625 4.58755 39.514 4.8938 39.7546 5.21099C39.5031 5.20005 39.2515 5.18911 39 5.18911C38.7484 5.18911 38.4968 5.20005 38.2453 5.21099C38.4859 4.8938 38.7375 4.58755 39 4.30317ZM41.4281 6.60005L41.0343 5.9438C41.45 5.99849 41.8437 6.06411 42.2156 6.15161C42.0953 6.51255 41.964 6.89536 41.8 7.27817C41.6796 7.04849 41.5593 6.8188 41.4281 6.60005ZM35.4671 4.82817C35.2812 3.67974 35.4343 2.87036 35.8828 2.60786C35.9921 2.54224 36.1234 2.50942 36.2656 2.50942C36.9218 2.50942 37.7421 3.04536 38.5625 3.85474C38.1796 4.27036 37.7968 4.75161 37.425 5.27661C36.7906 5.3313 36.189 5.42974 35.6203 5.55005C35.5546 5.29849 35.5109 5.05786 35.4671 4.82817ZM32.7656 8.00005C32.7656 7.48599 33.389 6.93911 34.4828 6.53442C34.7015 6.44692 34.9421 6.37036 35.1828 6.30474C35.3578 6.85161 35.5765 7.4313 35.839 8.01099C35.5765 8.59067 35.3468 9.15942 35.1828 9.7063C33.6734 9.2688 32.7656 8.61255 32.7656 8.00005ZM35.8828 13.3922C35.4343 13.1297 35.2812 12.3204 35.4671 11.1719C35.5 10.9422 35.5546 10.7016 35.6203 10.45C36.189 10.5813 36.7906 10.6688 37.425 10.7235C37.7968 11.2485 38.1796 11.7188 38.5625 12.1454C37.7531 12.9438 36.9328 13.4907 36.2656 13.4907C36.1234 13.4907 35.9921 13.4579 35.8828 13.3922ZM42.5328 11.1719C42.7187 12.3204 42.5656 13.1297 42.1171 13.3922C42.0078 13.4579 41.8765 13.4907 41.7343 13.4907C41.0781 13.4907 40.2578 12.9547 39.4375 12.1454C39.8203 11.7297 40.2031 11.2485 40.575 10.7235C41.2093 10.6688 41.8109 10.5704 42.3796 10.45C42.4453 10.7016 42.489 10.9422 42.5328 11.1719ZM43.5171 9.46567C43.2984 9.55317 43.0578 9.62974 42.8171 9.69536C42.6421 9.14849 42.4234 8.5688 42.1609 7.98911C42.4234 7.40942 42.6531 6.84067 42.8171 6.2938C44.3265 6.7313 45.2343 7.38755 45.2343 8.00005C45.2343 8.51411 44.6 9.06099 43.5171 9.46567Z" fill="#61DAFB"/>
</g>
<g clip-path="url(#clip1_554_61)">
<path d="M56.0005 3.2002C53.8671 3.2002 52.5342 4.26645 52.0005 6.39982C52.8002 5.33345 53.7339 4.93357 54.8002 5.2002C55.4091 5.35195 55.8442 5.79345 56.3261 6.2827C57.1104 7.07857 58.0181 7.99995 60.0005 7.99995C62.1337 7.99995 63.4667 6.93357 64.0005 4.7997C63.2005 5.86661 62.2672 6.2667 61.2006 5.99995C60.5919 5.84807 60.1572 5.4067 59.6747 4.91745C58.891 4.12157 57.9835 3.2002 56.0005 3.2002ZM52.0005 7.99995C49.8672 7.99995 48.5342 9.06632 48.0005 11.2002C48.8004 10.1333 49.7337 9.7332 50.8002 9.99995C51.4091 10.1518 51.8442 10.5932 52.3261 11.0824C53.1104 11.8783 54.0181 12.7997 56.0005 12.7997C58.1337 12.7997 59.4667 11.7334 60.0005 9.60007C59.2005 10.6665 58.2672 11.0664 57.2006 10.7997C56.5919 10.6479 56.1572 10.2064 55.6747 9.7172C54.891 8.92132 53.9835 7.99995 52.0005 7.99995Z" fill="#38BDF8"/>
</g>
<path d="M77 1H79V3H77V1ZM77 5V11.065C76.9987 11.5778 76.7944 12.0692 76.4318 12.4318C76.0692 12.7944 75.5778 12.9987 75.065 13H75V15H75.065C75.5818 15.0003 76.0936 14.8987 76.5712 14.701C77.0487 14.5033 77.4826 14.2135 77.8481 13.8481C78.2135 13.4826 78.5033 13.0487 78.701 12.5712C78.8987 12.0936 79.0003 11.5818 79 11.065V5H77ZM73 1H75V11H73V1Z" fill="#43A047"/>
<path d="M71.919 6C72.2056 6.0004 72.4803 6.11442 72.6829 6.31706C72.8856 6.5197 72.9996 6.79442 73 7.081V9.5585L72.615 9.687C72.161 9.8384 71.6733 9.85714 71.209 9.741C70.8635 9.65482 70.5567 9.4555 70.3376 9.17478C70.1185 8.89406 69.9997 8.5481 70 8.192V7.9185C70.0004 7.40972 70.2027 6.92189 70.5625 6.56218C70.9223 6.20246 71.4102 6.00027 71.919 6ZM71.919 4C70.8798 4.00027 69.8832 4.41318 69.1483 5.14796C68.4134 5.88275 68.0004 6.87928 68 7.9185V8.192C67.9998 8.99409 68.2677 9.77323 68.7614 10.4055C69.255 11.0377 69.9458 11.4867 70.724 11.681C71.5573 11.8894 72.4327 11.8557 73.2475 11.584L75 11V7.081C75.0001 6.67636 74.9205 6.27566 74.7657 5.9018C74.611 5.52793 74.384 5.18823 74.0979 4.90211C73.8118 4.61599 73.4721 4.38905 73.0982 4.23426C72.7243 4.07947 72.3236 3.99987 71.919 4Z" fill="#43A047"/>
<path d="M90.5733 1.33337C90.0676 1.33337 89.5826 1.53425 89.225 1.89182C88.8675 2.24939 88.6666 2.73436 88.6666 3.24004V4.36004H91.5266C91.7866 4.36004 91.9999 4.74004 91.9999 5.00004H87.2399C86.7342 5.00004 86.2493 5.20092 85.8917 5.55849C85.5341 5.91606 85.3333 6.40103 85.3333 6.90671V9.42737C85.3333 9.93305 85.5341 10.418 85.8917 10.7756C86.2493 11.1332 86.7342 11.334 87.2399 11.334H88.0266V9.54737C88.0257 9.2973 88.0742 9.04952 88.1693 8.81823C88.2644 8.58694 88.4042 8.3767 88.5807 8.19956C88.7572 8.02242 88.967 7.88187 89.1979 7.78597C89.4289 7.69007 89.6765 7.64071 89.9266 7.64071H93.4266C94.4799 7.64071 95.3333 6.79337 95.3333 5.74004V3.24004C95.3333 2.73436 95.1324 2.24939 94.7748 1.89182C94.4172 1.53425 93.9323 1.33337 93.4266 1.33337H90.5733ZM90.0933 2.40671C90.3599 2.40671 90.5733 2.48671 90.5733 2.88004C90.5733 3.27337 90.3599 3.47404 90.0933 3.47404C89.8333 3.47404 89.6199 3.27404 89.6199 2.88071C89.6199 2.48737 89.8333 2.40671 90.0933 2.40671Z" fill="#0288D1"/>
<path d="M95.9727 4.66663V6.45329C95.9735 6.70331 95.925 6.95102 95.8298 7.18223C95.7347 7.41345 95.5949 7.62361 95.4184 7.80068C95.2419 7.97774 95.0321 8.11823 94.8012 8.21409C94.5703 8.30995 94.3228 8.35929 94.0727 8.35929H90.5734C90.3233 8.35841 90.0756 8.40691 89.8443 8.502C89.613 8.59709 89.4027 8.73691 89.2256 8.91343C89.0485 9.08995 88.9079 9.2997 88.812 9.53065C88.7161 9.7616 88.6667 10.0092 88.6667 10.2593V12.7593C88.6667 13.265 88.8676 13.7499 89.2252 14.1075C89.5828 14.4651 90.0677 14.666 90.5734 14.666H93.4267C93.9323 14.666 94.4172 14.4652 94.7747 14.1077C95.1323 13.7503 95.3332 13.2655 95.3334 12.76V11.64H92.4727C92.2127 11.64 92.0001 11.26 92.0001 11H96.7601C97.2658 11 97.7507 10.7991 98.1083 10.4415C98.4659 10.0839 98.6667 9.59897 98.6667 9.09329V6.57329C98.6667 6.06761 98.4659 5.58265 98.1083 5.22508C97.7507 4.86751 97.2658 4.66663 96.7601 4.66663H95.9727ZM89.5467 7.67529L89.5441 7.67796L89.5694 7.67529H89.5467ZM93.9067 12.526C94.1667 12.526 94.3801 12.726 94.3801 13.1193C94.3801 13.1815 94.3678 13.243 94.3441 13.3004C94.3203 13.3579 94.2854 13.41 94.2414 13.454C94.1975 13.4979 94.1453 13.5328 94.0879 13.5566C94.0305 13.5804 93.9689 13.5926 93.9067 13.5926C93.6401 13.5926 93.4267 13.5126 93.4267 13.1193C93.4267 12.726 93.6401 12.526 93.9067 12.526Z" fill="#FDD835"/>
<defs>
<clipPath id="clip0_554_61">
<rect width="14" height="14" fill="white" transform="translate(32 1)"/>
</clipPath>
<clipPath id="clip1_554_61">
<rect width="16" height="16" fill="white" transform="translate(48)"/>
</clipPath>
</defs>
</svg>
